Coordinates
version=1
nRows=17
nColumns=24
inDegrees=yes

Units are S.I. units (second, meters, Newtons, ...)
Angles are in degrees.

endheader
time	pelvis_tilt	pelvis_list	pelvis_rotation	pelvis_tx	pelvis_ty	pelvis_tz	hip_flexion_r	hip_adduction_r	hip_rotation_r	knee_angle_r	ankle_angle_r	subtalar_angle_r	mtp_angle_r	hip_flexion_l	hip_adduction_l	hip_rotation_l	knee_angle_l	ankle_angle_l	subtalar_angle_l	mtp_angle_l	lumbar_extension	lumbar_bending	lumbar_rotation
      5.12000000	    -11.39591899	      1.71053406	      2.46081540	      0.20867623	     -0.00423479	     -0.03865803	     35.93603531	     -7.48911123	     -9.89498797	    -44.33436748	     -5.95837084	      7.68786439	     31.62040907	      2.77053925	      6.46754981	     -2.02254426	     -3.80660051	     -0.11957219	      6.58686600	      8.25072424	     10.58576874	     -4.34661730	     -7.63191671
      5.12500000	    -11.46878945	      1.63929274	      2.58153394	      0.21371569	     -0.00469913	     -0.03902443	     36.17441898	     -7.35986117	    -10.05157860	    -43.16785213	     -5.92962831	      7.63324607	     31.37108170	      2.52239749	      6.39970970	     -1.92888373	     -3.77751135	      0.00865402	      6.65917147	      8.30974984	     10.68189490	     -4.25191738	     -7.68775381
      5.13000000	    -11.38990246	      1.55026103	      2.79099778	      0.21872647	     -0.00498094	     -0.03939029	     36.19700247	     -7.25498808	    -10.33448131	    -41.97256727	     -5.84114034	      7.53152297	     30.76415082	      2.11525322	      6.29554853	     -1.82919146	     -3.75225761	      0.16431574	      6.93383130	      8.43451930	     10.59024708	     -4.17354051	     -7.87060554
      5.13500000	    -11.43878874	      1.46935913	      2.92088770	      0.22377285	     -0.00541129	     -0.03972292	     36.36341209	     -7.11872899	    -10.53150707	    -40.74289685	     -5.84545137	      7.47782928	     30.37015704	      1.84605755	      6.20515640	     -1.74422321	     -3.72847752	      0.28710209	      7.08054579	      8.51294012	     10.65711418	     -4.07438796	     -7.94185975
      5.14000000	    -11.44991786	      1.38632986	      3.07190785	      0.22881574	     -0.00582154	     -0.04003925	     36.45563207	     -6.98228625	    -10.72834417	    -39.47395231	     -5.80233872	      7.45179072	     29.94087657	      1.54340921	      6.10461986	     -1.66072730	     -3.71840778	      0.43109531	      7.28385863	      8.61518545	     10.67620927	     -3.98260379	     -8.04126139
      5.14500000	    -11.48883327	      1.31111591	      3.19751702	      0.23384983	     -0.00627455	     -0.04034313	     36.56711045	     -6.83910939	    -10.88804903	    -38.17765852	     -5.78390468	      7.45933666	     29.56161003	      1.27528690	      6.01193100	     -1.58814906	     -3.71540407	      0.56293634	      7.46262103	      8.71030117	     10.72479847	     -3.88812221	     -8.10664116
      5.15000000	    -11.44976601	      1.23394667	      3.31658801	      0.23888216	     -0.00666966	     -0.04061530	     36.56808478	     -6.67687934	    -11.01289407	    -36.86476403	     -5.66487616	      7.56920975	     28.87346005	      0.92900165	      5.90573611	     -1.59800652	     -3.72041347	      0.71908641	      7.76572354	      8.87587792	     10.68196964	     -3.78755043	     -8.17760812
      5.15500000	    -11.57011612	      1.17059173	      3.44461815	      0.24388158	     -0.00723886	     -0.04093306	     36.73879772	     -6.54409640	    -11.13090832	    -35.52008363	     -5.67510063	      7.54993080	     28.63048959	      0.76681064	      5.82997296	     -1.48347180	     -3.74621771	      0.83363547	      7.86629164	      8.94649092	     10.80991541	     -3.70367693	     -8.22511147
      5.16000000	    -11.56492269	      1.07521283	      3.59626008	      0.24887864	     -0.00765322	     -0.04121705	     36.72973446	     -6.37827700	    -11.27010901	    -34.13621579	     -5.62045763	      7.57387818	     28.13453063	      0.48295770	      5.69880399	     -1.43140620	     -3.79392744	      0.98972161	      8.16593242	      9.08922834	     10.79356252	     -3.59784396	     -8.35307762
      5.16500000	    -11.69276425	      1.00287305	      3.69461437	      0.25393732	     -0.00827291	     -0.04152181	     36.87188543	     -6.22133960	    -11.35497512	    -32.75250225	     -5.58150188	      7.60917036	     27.89923044	      0.33449013	      5.61008785	     -1.34377321	     -3.83619055	      1.11482229	      8.26518481	      9.16203357	     10.93617315	     -3.49284572	     -8.35991281
      5.17000000	    -11.76043024	      0.90515323	      3.84888041	      0.25896986	     -0.00877527	     -0.04182180	     36.91432330	     -6.05995394	    -11.48703209	    -31.34146843	     -5.56135624	      7.56667928	     27.51958186	      0.13083104	      5.47787630	     -1.24205662	     -3.88601817	      1.24447152	      8.51687739	      9.26763275	     10.99964698	     -3.38348526	     -8.44835149
      5.17500000	    -11.75071045	      0.81352264	      3.98943386	      0.26396573	     -0.00923763	     -0.04211463	     36.86053247	     -5.88281659	    -11.53331421	    -29.93354743	     -5.43662887	      7.59929916	     26.89342196	     -0.13767396	      5.34649174	     -1.25893272	     -3.96648965	      1.41461238	      8.87776810	      9.42179593	     10.97001937	     -3.26647187	     -8.56006740
      5.18000000	    -11.87192878	      0.73174583	      4.13027442	      0.26899867	     -0.00987546	     -0.04241775	     36.95209757	     -5.73028065	    -11.58768674	    -28.53767253	     -5.35452244	      7.54960496	     26.50384061	     -0.26700616	      5.23543766	     -1.13582792	     -4.05050187	      1.55524928	      9.06067680	      9.52368807	     11.08647966	     -3.16484859	     -8.59615206
      5.18500000	    -11.95680053	      0.64252644	      4.27782427	      0.27402127	     -0.01046929	     -0.04273501	     36.99014610	     -5.57201497	    -11.62093402	    -27.13820164	     -5.27150756	      7.49461354	     26.06214536	     -0.42503960	      5.11322567	     -1.05917184	     -4.14985440	      1.70162363	      9.30143258	      9.62940523	     11.15601844	     -3.05364283	     -8.67596508
      5.19000000	    -12.08467818	      0.54966415	      4.40024130	      0.27909143	     -0.01112056	     -0.04306202	     37.07340634	     -5.40916003	    -11.65889319	    -25.74739862	     -5.22748668	      7.44195333	     25.71948609	     -0.53913813	      4.99460776	     -0.98419276	     -4.24768509	      1.82251495	      9.46722727	      9.70799543	     11.27874160	     -2.93172036	     -8.72817771
      5.19500000	    -12.13015466	      0.46706311	      4.56996796	      0.28409651	     -0.01171592	     -0.04336341	     37.05515879	     -5.25666512	    -11.61311741	    -24.37627331	     -5.10191577	      7.30118653	     25.13375792	     -0.71941820	      4.86975076	     -0.94145956	     -4.38266225	      2.00456183	      9.81937943	      9.84235739	     11.29106925	     -2.82994774	     -8.82680796
      5.20000000	    -12.28168617	      0.37039835	      4.70407672	      0.28920955	     -0.01242465	     -0.04372058	     37.15303434	     -5.10176251	    -11.60779991	    -23.01472587	     -5.07217801	      7.20762063	     24.79923608	     -0.80023026	      4.75069776	     -0.85939714	     -4.49586417	      2.12197534	      9.96421954	      9.91766013	     11.43819744	     -2.70133495	     -8.89157490
